<svg width="35" height="27" viewBox="0 0 35 27" fill="none" xmlns="http://www.w3.org/2000/svg">
<path d="M32.2201 4.375H26.5964C23.6706 1.09375 22.75 0 21.6289 0H13.5625C12.4414 0 11.5391 1.09375 8.59505 4.375H7.38281V2.91667H4.28385V4.375H3.05339C1.44922 4.375 0 5.57812 0 7.17318V23.2148C0 24.8099 1.44922 26.25 3.05339 26.25H32.2201C33.8242 26.25 35 24.8099 35 23.2148V7.17318C35 5.57812 33.8242 4.375 32.2201 4.375ZM33.5417 23.2148C33.5417 24.0625 32.9766 24.7917 32.2201 24.7917H3.05339C2.26042 24.7917 1.45833 23.9987 1.45833 23.2148V7.17318C1.45833 6.42578 2.19661 5.83333 3.05339 5.83333H9.23307L9.67057 5.54167C10.0352 5.13151 10.3724 4.63021 10.6823 4.28385C11.7122 3.1263 12.4596 2.30599 12.9883 1.83203C13.4167 1.44922 13.5534 1.45833 13.5534 1.45833H21.6198C21.6198 1.45833 21.7656 1.44922 22.2305 1.86849C22.7865 2.36979 23.5703 3.3724 24.6549 4.58464C24.9193 4.88542 25.2018 5.20443 25.5026 5.54167L25.9401 5.83333H32.2201C33.0221 5.83333 33.5417 6.38021 33.5417 7.17318V23.2148Z" fill="#2260FF"/>
<path d="M17.5 7.0638C13.207 7.0638 9.70703 10.5638 9.70703 14.8568C9.70703 19.1497 13.207 22.6497 17.5 22.6497C21.793 22.6497 25.293 19.1497 25.293 14.8568C25.293 10.5638 21.793 7.0638 17.5 7.0638ZM17.5 21.1914C14 21.1914 11.1654 18.3568 11.1654 14.8568C11.1654 11.3568 14 8.52214 17.5 8.52214C21 8.52214 23.8346 11.3568 23.8346 14.8568C23.8346 18.3568 21 21.1914 17.5 21.1914Z" fill="#2260FF"/>
<path d="M27.7995 7.29167H26.25V8.84115H27.7995V7.29167Z" fill="#2260FF"/>
<path d="M17.5 17.7734C19.1108 17.7734 20.4167 16.4676 20.4167 14.8568C20.4167 13.2459 19.1108 11.9401 17.5 11.9401C15.8892 11.9401 14.5833 13.2459 14.5833 14.8568C14.5833 16.4676 15.8892 17.7734 17.5 17.7734Z" fill="#2260FF"/>
</svg>
