<svg width="60" height="60" viewBox="0 0 60 60" fill="none" xmlns="http://www.w3.org/2000/svg">
<circle cx="30" cy="30" r="29" fill="white" stroke="#2260FF" stroke-width="2"/>
<path d="M44.2201 21.375H38.5964C35.6706 18.0938 34.75 17 33.6289 17H25.5625C24.4414 17 23.5391 18.0938 20.5951 21.375H19.3828V19.9167H16.2839V21.375H15.0534C13.4492 21.375 12 22.5781 12 24.1732V40.2148C12 41.8099 13.4492 43.25 15.0534 43.25H44.2201C45.8242 43.25 47 41.8099 47 40.2148V24.1732C47 22.5781 45.8242 21.375 44.2201 21.375ZM45.5417 40.2148C45.5417 41.0625 44.9766 41.7917 44.2201 41.7917H15.0534C14.2604 41.7917 13.4583 40.9987 13.4583 40.2148V24.1732C13.4583 23.4258 14.1966 22.8333 15.0534 22.8333H21.2331L21.6706 22.5417C22.0352 22.1315 22.3724 21.6302 22.6823 21.2839C23.7122 20.1263 24.4596 19.306 24.9883 18.832C25.4167 18.4492 25.5534 18.4583 25.5534 18.4583H33.6198C33.6198 18.4583 33.7656 18.4492 34.2305 18.8685C34.7865 19.3698 35.5703 20.3724 36.6549 21.5846C36.9193 21.8854 37.2018 22.2044 37.5026 22.5417L37.9401 22.8333H44.2201C45.0221 22.8333 45.5417 23.3802 45.5417 24.1732V40.2148Z" fill="#2260FF"/>
<path d="M29.5 24.0638C25.207 24.0638 21.707 27.5638 21.707 31.8568C21.707 36.1497 25.207 39.6497 29.5 39.6497C33.793 39.6497 37.293 36.1497 37.293 31.8568C37.293 27.5638 33.793 24.0638 29.5 24.0638ZM29.5 38.1914C26 38.1914 23.1654 35.3568 23.1654 31.8568C23.1654 28.3568 26 25.5221 29.5 25.5221C33 25.5221 35.8346 28.3568 35.8346 31.8568C35.8346 35.3568 33 38.1914 29.5 38.1914Z" fill="#2260FF"/>
<path d="M39.7995 24.2917H38.25V25.8411H39.7995V24.2917Z" fill="#2260FF"/>
<path d="M29.5 34.7734C31.1108 34.7734 32.4167 33.4676 32.4167 31.8568C32.4167 30.2459 31.1108 28.9401 29.5 28.9401C27.8892 28.9401 26.5833 30.2459 26.5833 31.8568C26.5833 33.4676 27.8892 34.7734 29.5 34.7734Z" fill="#2260FF"/>
</svg>
