<svg width="40" height="37" viewBox="0 0 40 37" fill="none" xmlns="http://www.w3.org/2000/svg">
<path d="M2.83063 25.08H4.46263C5.30663 25.08 5.99863 25.25 6.53863 25.59C7.07863 25.926 7.47663 26.392 7.73263 26.988C7.99263 27.584 8.12263 28.266 8.12263 29.034C8.12263 29.806 7.99463 30.49 7.73863 31.086C7.48263 31.682 7.08463 32.15 6.54463 32.49C6.00463 32.83 5.31063 33 4.46263 33H2.83063V25.08ZM3.49663 25.716V32.364H4.40863C5.11263 32.364 5.68463 32.222 6.12463 31.938C6.56863 31.654 6.89463 31.264 7.10263 30.768C7.31463 30.268 7.42263 29.694 7.42663 29.046C7.43063 28.398 7.32863 27.824 7.12063 27.324C6.91263 26.824 6.58463 26.432 6.13663 26.148C5.69263 25.86 5.11663 25.716 4.40863 25.716H3.49663ZM11.6706 33.144C11.1786 33.144 10.7406 33.03 10.3566 32.802C9.97659 32.57 9.67659 32.258 9.45659 31.866C9.24059 31.474 9.13259 31.036 9.13259 30.552C9.13259 30.068 9.24059 29.628 9.45659 29.232C9.67659 28.832 9.97659 28.516 10.3566 28.284C10.7406 28.048 11.1786 27.93 11.6706 27.93C12.1626 27.93 12.5966 28.048 12.9726 28.284C13.3526 28.516 13.6506 28.832 13.8666 29.232C14.0826 29.628 14.1906 30.068 14.1906 30.552C14.1906 31.036 14.0826 31.474 13.8666 31.866C13.6506 32.258 13.3526 32.57 12.9726 32.802C12.5966 33.03 12.1626 33.144 11.6706 33.144ZM11.6706 32.526C12.0426 32.526 12.3666 32.44 12.6426 32.268C12.9226 32.096 13.1386 31.86 13.2906 31.56C13.4466 31.26 13.5246 30.924 13.5246 30.552C13.5246 30.176 13.4466 29.838 13.2906 29.538C13.1386 29.234 12.9226 28.994 12.6426 28.818C12.3666 28.638 12.0426 28.548 11.6706 28.548C11.2946 28.548 10.9666 28.638 10.6866 28.818C10.4066 28.994 10.1886 29.234 10.0326 29.538C9.87659 29.838 9.79859 30.176 9.79859 30.552C9.79859 30.924 9.87659 31.26 10.0326 31.56C10.1886 31.86 10.4066 32.096 10.6866 32.268C10.9666 32.44 11.2946 32.526 11.6706 32.526ZM17.5883 32.544C17.9403 32.544 18.2223 32.49 18.4343 32.382C18.6463 32.27 18.7763 32.192 18.8243 32.148L19.1843 32.676C19.1523 32.7 19.0623 32.752 18.9143 32.832C18.7663 32.908 18.5743 32.978 18.3383 33.042C18.1063 33.11 17.8423 33.144 17.5463 33.144C17.1503 33.144 16.7683 33.046 16.4003 32.85C16.0323 32.654 15.7283 32.362 15.4883 31.974C15.2523 31.586 15.1343 31.106 15.1343 30.534C15.1343 29.958 15.2523 29.478 15.4883 29.094C15.7283 28.706 16.0323 28.416 16.4003 28.224C16.7683 28.028 17.1503 27.93 17.5463 27.93C17.8423 27.93 18.1023 27.966 18.3263 28.038C18.5503 28.11 18.7343 28.19 18.8783 28.278C19.0223 28.366 19.1123 28.43 19.1483 28.47L18.7943 28.992C18.7583 28.96 18.6903 28.908 18.5903 28.836C18.4943 28.76 18.3623 28.69 18.1943 28.626C18.0263 28.562 17.8243 28.53 17.5883 28.53C17.3043 28.53 17.0243 28.608 16.7483 28.764C16.4723 28.92 16.2443 29.148 16.0643 29.448C15.8883 29.744 15.8003 30.106 15.8003 30.534C15.8003 30.962 15.8883 31.326 16.0643 31.626C16.2443 31.926 16.4723 32.154 16.7483 32.31C17.0243 32.466 17.3043 32.544 17.5883 32.544ZM19.8716 28.074H20.8976V26.052H21.5756V28.074H22.9196V28.692H21.5756V31.614C21.5756 31.942 21.6356 32.176 21.7556 32.316C21.8756 32.456 22.0256 32.526 22.2056 32.526C22.3776 32.526 22.5076 32.496 22.5956 32.436C22.6836 32.376 22.7356 32.336 22.7516 32.316L23.0696 32.838C23.0456 32.858 22.9916 32.894 22.9076 32.946C22.8236 32.994 22.7136 33.038 22.5776 33.078C22.4416 33.122 22.2776 33.144 22.0856 33.144C21.7536 33.144 21.4716 33.038 21.2396 32.826C21.0116 32.61 20.8976 32.266 20.8976 31.794V28.692H19.8716V28.074ZM26.2604 33.144C25.7684 33.144 25.3304 33.03 24.9464 32.802C24.5664 32.57 24.2664 32.258 24.0464 31.866C23.8304 31.474 23.7224 31.036 23.7224 30.552C23.7224 30.068 23.8304 29.628 24.0464 29.232C24.2664 28.832 24.5664 28.516 24.9464 28.284C25.3304 28.048 25.7684 27.93 26.2604 27.93C26.7524 27.93 27.1864 28.048 27.5624 28.284C27.9424 28.516 28.2404 28.832 28.4564 29.232C28.6724 29.628 28.7804 30.068 28.7804 30.552C28.7804 31.036 28.6724 31.474 28.4564 31.866C28.2404 32.258 27.9424 32.57 27.5624 32.802C27.1864 33.03 26.7524 33.144 26.2604 33.144ZM26.2604 32.526C26.6324 32.526 26.9564 32.44 27.2324 32.268C27.5124 32.096 27.7284 31.86 27.8804 31.56C28.0364 31.26 28.1144 30.924 28.1144 30.552C28.1144 30.176 28.0364 29.838 27.8804 29.538C27.7284 29.234 27.5124 28.994 27.2324 28.818C26.9564 28.638 26.6324 28.548 26.2604 28.548C25.8844 28.548 25.5564 28.638 25.2764 28.818C24.9964 28.994 24.7784 29.234 24.6224 29.538C24.4664 29.838 24.3884 30.176 24.3884 30.552C24.3884 30.924 24.4664 31.26 24.6224 31.56C24.7784 31.86 24.9964 32.096 25.2764 32.268C25.5564 32.44 25.8844 32.526 26.2604 32.526ZM30.7441 33H30.0721V28.074H30.7441V28.962H30.7141C30.7301 28.858 30.8021 28.726 30.9301 28.566C31.0621 28.402 31.2401 28.256 31.4641 28.128C31.6881 27.996 31.9521 27.93 32.2561 27.93C32.4881 27.93 32.6861 27.96 32.8501 28.02C33.0181 28.076 33.1341 28.134 33.1981 28.194L32.8981 28.776C32.8461 28.724 32.7481 28.672 32.6041 28.62C32.4641 28.568 32.2941 28.542 32.0941 28.542C31.8181 28.542 31.5781 28.634 31.3741 28.818C31.1741 29.002 31.0181 29.222 30.9061 29.478C30.7981 29.73 30.7441 29.962 30.7441 30.174V33ZM35.5476 27.93C35.7756 27.93 35.9896 27.956 36.1896 28.008C36.3936 28.056 36.5716 28.118 36.7236 28.194C36.8756 28.266 36.9896 28.332 37.0656 28.392L36.7356 28.866C36.6516 28.786 36.5056 28.702 36.2976 28.614C36.0896 28.522 35.8556 28.476 35.5956 28.476C35.2756 28.476 35.0016 28.542 34.7736 28.674C34.5496 28.806 34.4376 28.998 34.4376 29.25C34.4376 29.494 34.5516 29.688 34.7796 29.832C35.0076 29.976 35.3076 30.094 35.6796 30.186C35.9636 30.258 36.2216 30.348 36.4536 30.456C36.6896 30.564 36.8776 30.712 37.0176 30.9C37.1576 31.084 37.2276 31.33 37.2276 31.638C37.2276 31.902 37.1736 32.13 37.0656 32.322C36.9576 32.51 36.8096 32.664 36.6216 32.784C36.4376 32.904 36.2276 32.994 35.9916 33.054C35.7556 33.114 35.5076 33.144 35.2476 33.144C34.9796 33.144 34.7316 33.114 34.5036 33.054C34.2756 32.994 34.0796 32.922 33.9156 32.838C33.7556 32.754 33.6336 32.676 33.5496 32.604L33.8916 32.07C33.9956 32.178 34.1656 32.29 34.4016 32.406C34.6416 32.518 34.9216 32.574 35.2416 32.574C35.6136 32.574 35.9196 32.488 36.1596 32.316C36.4036 32.144 36.5256 31.918 36.5256 31.638C36.5256 31.434 36.4676 31.27 36.3516 31.146C36.2356 31.022 36.0836 30.924 35.8956 30.852C35.7076 30.776 35.5076 30.712 35.2956 30.66C35.0916 30.608 34.8956 30.546 34.7076 30.474C34.5236 30.398 34.3596 30.304 34.2156 30.192C34.0716 30.08 33.9576 29.946 33.8736 29.79C33.7936 29.63 33.7536 29.444 33.7536 29.232C33.7536 28.968 33.8356 28.74 33.9996 28.548C34.1636 28.352 34.3816 28.2 34.6536 28.092C34.9296 27.984 35.2276 27.93 35.5476 27.93Z" fill="#2260FF"/>
<path d="M19.47 19.8232C19.7461 19.8232 19.97 19.5994 19.97 19.3232C19.97 19.0471 19.7461 18.8232 19.47 18.8232V19.8232ZM15.1639 15.4213H14.6639C14.6639 15.4368 14.6647 15.4524 14.6661 15.4679L15.1639 15.4213ZM19.4645 18.8232C19.1883 18.8232 18.9645 19.0471 18.9645 19.3232C18.9645 19.5994 19.1883 19.8232 19.4645 19.8232V18.8232ZM23.7705 15.4213L24.2705 15.4213H24.2705L23.7705 15.4213ZM24.2705 12.0732C24.2705 11.7971 24.0466 11.5732 23.7705 11.5732C23.4943 11.5732 23.2705 11.7971 23.2705 12.0732L24.2705 12.0732ZM15.6639 12.8168C15.6639 12.5407 15.4401 12.3168 15.1639 12.3168C14.8878 12.3168 14.6639 12.5407 14.6639 12.8168H15.6639ZM20.082 3.78411H20.582C20.582 3.77385 20.5817 3.7636 20.581 3.75336L20.082 3.78411ZM15.041 12.8232V12.3232H15.041L15.041 12.8232ZM18.4617 1.82324C18.1855 1.82324 17.9617 2.0471 17.9617 2.32324C17.9617 2.59938 18.1855 2.82324 18.4617 2.82324V1.82324ZM10 3.78411L9.50095 3.75336C9.50032 3.7636 9.5 3.77385 9.5 3.78411H10ZM11.6203 2.82324C11.8965 2.82324 12.1203 2.59938 12.1203 2.32324C12.1203 2.0471 11.8965 1.82324 11.6203 1.82324V2.82324ZM19.47 18.8232H19.4672V19.8232H19.47V18.8232ZM19.4676 18.8232C17.4577 18.8219 15.8224 17.0887 15.6618 15.3746L14.6661 15.4679C14.871 17.6543 16.9007 19.8215 19.4669 19.8232L19.4676 18.8232ZM19.4645 19.8232H19.4672V18.8232H19.4645V19.8232ZM19.4676 19.8232C21.9786 19.8215 24.2705 17.8838 24.2705 15.4213L23.2705 15.4213C23.2705 17.2315 21.5319 18.8218 19.4669 18.8232L19.4676 19.8232ZM24.2705 15.4213L24.2705 12.0732L23.2705 12.0732L23.2705 15.4213L24.2705 15.4213ZM15.6639 15.4213V12.8168H14.6639V15.4213H15.6639ZM19.582 3.78411V7.7102H20.582V3.78411H19.582ZM19.582 7.7102C19.582 10.2646 17.5422 12.3232 15.041 12.3232V13.3232C18.1079 13.3232 20.582 10.8035 20.582 7.7102H19.582ZM20.581 3.75336C20.5608 3.42477 20.4328 2.95425 20.1071 2.55499C19.765 2.13576 19.2259 1.82324 18.4617 1.82324V2.82324C18.9216 2.82324 19.1777 2.99768 19.3322 3.18714C19.5031 3.39659 19.5732 3.65649 19.5829 3.81486L20.581 3.75336ZM9.5 3.78411V7.7102H10.5V3.78411H9.5ZM9.5 7.7102C9.5 10.8035 11.9741 13.3232 15.041 13.3232L15.041 12.3232C12.5397 12.3232 10.5 10.2646 10.5 7.7102H9.5ZM10.4991 3.81486C10.5088 3.65649 10.5789 3.39659 10.7497 3.18714C10.9043 2.99768 11.1603 2.82324 11.6203 2.82324V1.82324C10.8561 1.82324 10.3169 2.13576 9.9749 2.55499C9.64917 2.95425 9.52119 3.42477 9.50095 3.75336L10.4991 3.81486ZM12.9426 2.19824C12.9426 2.41317 12.7734 2.57324 12.582 2.57324V3.57324C13.3412 3.57324 13.9426 2.94981 13.9426 2.19824H12.9426ZM12.582 2.57324C12.3905 2.57324 12.2213 2.41317 12.2213 2.19824H11.2213C11.2213 2.94981 11.8227 3.57324 12.582 3.57324V2.57324ZM12.2213 2.19824C12.2213 1.98331 12.3905 1.82324 12.582 1.82324V0.823242C11.8227 0.823242 11.2213 1.44667 11.2213 2.19824H12.2213ZM12.582 1.82324C12.7734 1.82324 12.9426 1.98331 12.9426 2.19824H13.9426C13.9426 1.44667 13.3412 0.823242 12.582 0.823242V1.82324ZM17.8607 2.19824C17.8607 2.41317 17.6914 2.57324 17.5 2.57324V3.57324C18.2592 3.57324 18.8607 2.94981 18.8607 2.19824H17.8607ZM17.5 2.57324C17.3086 2.57324 17.1393 2.41317 17.1393 2.19824H16.1393C16.1393 2.94981 16.7408 3.57324 17.5 3.57324V2.57324ZM17.1393 2.19824C17.1393 1.98331 17.3086 1.82324 17.5 1.82324V0.823242C16.7408 0.823242 16.1393 1.44667 16.1393 2.19824H17.1393ZM17.5 1.82324C17.6914 1.82324 17.8607 1.98331 17.8607 2.19824H18.8607C18.8607 1.44667 18.2592 0.823242 17.5 0.823242V1.82324ZM24.5 10.6982C24.5 11.1893 24.1106 11.5732 23.6475 11.5732V12.5732C24.6784 12.5732 25.5 11.726 25.5 10.6982H24.5ZM23.6475 11.5732C23.1845 11.5732 22.7951 11.1893 22.7951 10.6982H21.7951C21.7951 11.726 22.6167 12.5732 23.6475 12.5732V11.5732ZM22.7951 10.6982C22.7951 10.2072 23.1845 9.82324 23.6475 9.82324V8.82324C22.6167 8.82324 21.7951 9.67053 21.7951 10.6982H22.7951ZM23.6475 9.82324C24.1106 9.82324 24.5 10.2072 24.5 10.6982H25.5C25.5 9.67053 24.6784 8.82324 23.6475 8.82324V9.82324Z" fill="#2260FF"/>
</svg>
