<?xml version="1.0" standalone="no"?>
<!DOCTYPE svg PUBLIC "-//W3C//DTD SVG 20010904//EN"
 "http://www.w3.org/TR/2001/REC-SVG-20010904/DTD/svg10.dtd">
<svg version="1.0" xmlns="http://www.w3.org/2000/svg"
 width="52.000000pt" height="52.000000pt" viewBox="0 0 52.000000 52.000000"
 preserveAspectRatio="xMidYMid meet">

<g transform="translate(0.000000,52.000000) scale(0.100000,-0.100000)"
fill="#000000" stroke="none">
<path d="M189 507 c-101 -38 -160 -102 -179 -192 -14 -69 -7 -115 28 -180 50
-91 162 -147 260 -130 57 9 133 56 168 102 37 49 59 136 49 191 -16 86 -79
168 -152 198 -49 21 -133 26 -174 11z m154 -40 c82 -35 137 -118 137 -207 0
-89 -46 -162 -125 -199 -73 -34 -75 -32 -75 58 l0 80 38 3 c25 2 37 8 37 18 0
10 -12 16 -37 18 -37 3 -38 5 -38 41 0 42 14 61 46 61 13 0 26 5 30 11 12 20
-13 32 -51 25 -29 -6 -39 -14 -51 -41 -8 -19 -14 -48 -14 -64 0 -27 -3 -30
-37 -33 -26 -2 -38 -8 -38 -18 0 -10 12 -16 38 -18 l37 -3 0 -80 c0 -87 -3
-91 -63 -66 -143 61 -184 262 -74 365 61 57 168 79 240 49z"/>
</g>
</svg>
