<svg width="48" height="14" viewBox="0 0 48 14" fill="none" xmlns="http://www.w3.org/2000/svg">
<path d="M5.4308 2.08H9.3488V2.71H6.0908V5.716H9.1388V6.346H6.0908V10H5.4308V2.08ZM14.2901 10V8.968C14.2621 9.076 14.1681 9.224 14.0081 9.412C13.8521 9.6 13.6341 9.77 13.3541 9.922C13.0781 10.07 12.7501 10.144 12.3701 10.144C11.9261 10.144 11.5161 10.042 11.1401 9.838C10.7681 9.63 10.4681 9.332 10.2401 8.944C10.0161 8.552 9.90408 8.084 9.90408 7.54C9.90408 6.996 10.0161 6.53 10.2401 6.142C10.4681 5.75 10.7681 5.45 11.1401 5.242C11.5161 5.034 11.9261 4.93 12.3701 4.93C12.7501 4.93 13.0781 5.002 13.3541 5.146C13.6301 5.286 13.8481 5.448 14.0081 5.632C14.1721 5.816 14.2641 5.97 14.2841 6.094V5.074H14.9561V10H14.2901ZM10.5821 7.54C10.5821 7.956 10.6721 8.314 10.8521 8.614C11.0321 8.914 11.2641 9.144 11.5481 9.304C11.8361 9.464 12.1381 9.544 12.4541 9.544C12.8021 9.544 13.1121 9.462 13.3841 9.298C13.6561 9.134 13.8701 8.902 14.0261 8.602C14.1861 8.302 14.2661 7.948 14.2661 7.54C14.2661 7.132 14.1861 6.778 14.0261 6.478C13.8701 6.178 13.6561 5.946 13.3841 5.782C13.1121 5.614 12.8021 5.53 12.4541 5.53C12.1381 5.53 11.8361 5.612 11.5481 5.776C11.2641 5.936 11.0321 6.166 10.8521 6.466C10.6721 6.766 10.5821 7.124 10.5821 7.54ZM15.9593 5.074H16.6913L18.4973 9.352L20.2973 5.074H21.0293L18.8993 10H18.0953L15.9593 5.074ZM24.3015 10.144C23.8095 10.144 23.3715 10.03 22.9875 9.802C22.6075 9.57 22.3075 9.258 22.0875 8.866C21.8715 8.474 21.7635 8.036 21.7635 7.552C21.7635 7.068 21.8715 6.628 22.0875 6.232C22.3075 5.832 22.6075 5.516 22.9875 5.284C23.3715 5.048 23.8095 4.93 24.3015 4.93C24.7935 4.93 25.2275 5.048 25.6035 5.284C25.9835 5.516 26.2815 5.832 26.4975 6.232C26.7135 6.628 26.8215 7.068 26.8215 7.552C26.8215 8.036 26.7135 8.474 26.4975 8.866C26.2815 9.258 25.9835 9.57 25.6035 9.802C25.2275 10.03 24.7935 10.144 24.3015 10.144ZM24.3015 9.526C24.6735 9.526 24.9975 9.44 25.2735 9.268C25.5535 9.096 25.7695 8.86 25.9215 8.56C26.0775 8.26 26.1555 7.924 26.1555 7.552C26.1555 7.176 26.0775 6.838 25.9215 6.538C25.7695 6.234 25.5535 5.994 25.2735 5.818C24.9975 5.638 24.6735 5.548 24.3015 5.548C23.9255 5.548 23.5975 5.638 23.3175 5.818C23.0375 5.994 22.8195 6.234 22.6635 6.538C22.5075 6.838 22.4295 7.176 22.4295 7.552C22.4295 7.924 22.5075 8.26 22.6635 8.56C22.8195 8.86 23.0375 9.096 23.3175 9.268C23.5975 9.44 23.9255 9.526 24.3015 9.526ZM28.7851 10H28.1131V5.074H28.7851V5.962H28.7551C28.7711 5.858 28.8431 5.726 28.9711 5.566C29.1031 5.402 29.2811 5.256 29.5051 5.128C29.7291 4.996 29.9931 4.93 30.2971 4.93C30.5291 4.93 30.7271 4.96 30.8911 5.02C31.0591 5.076 31.1751 5.134 31.2391 5.194L30.9391 5.776C30.8871 5.724 30.7891 5.672 30.6451 5.62C30.5051 5.568 30.3351 5.542 30.1351 5.542C29.8591 5.542 29.6191 5.634 29.4151 5.818C29.2151 6.002 29.0591 6.222 28.9471 6.478C28.8391 6.73 28.7851 6.962 28.7851 7.174V10ZM32.1346 10V5.074H32.8126V10H32.1346ZM32.4826 3.076C32.3386 3.076 32.2146 3.026 32.1106 2.926C32.0106 2.822 31.9606 2.698 31.9606 2.554C31.9606 2.406 32.0126 2.282 32.1166 2.182C32.2206 2.078 32.3426 2.026 32.4826 2.026C32.5786 2.026 32.6666 2.05 32.7466 2.098C32.8306 2.146 32.8966 2.21 32.9446 2.29C32.9966 2.366 33.0226 2.454 33.0226 2.554C33.0226 2.698 32.9686 2.822 32.8606 2.926C32.7566 3.026 32.6306 3.076 32.4826 3.076ZM34.1548 5.074H35.1808V3.052H35.8588V5.074H37.2028V5.692H35.8588V8.614C35.8588 8.942 35.9188 9.176 36.0388 9.316C36.1588 9.456 36.3088 9.526 36.4888 9.526C36.6608 9.526 36.7908 9.496 36.8788 9.436C36.9668 9.376 37.0188 9.336 37.0348 9.316L37.3528 9.838C37.3288 9.858 37.2748 9.894 37.1908 9.946C37.1068 9.994 36.9968 10.038 36.8608 10.078C36.7248 10.122 36.5608 10.144 36.3688 10.144C36.0368 10.144 35.7548 10.038 35.5228 9.826C35.2948 9.61 35.1808 9.266 35.1808 8.794V5.692H34.1548V5.074ZM38.6776 7.618C38.6816 7.962 38.7496 8.284 38.8816 8.584C39.0176 8.884 39.2216 9.126 39.4936 9.31C39.7656 9.494 40.1076 9.586 40.5196 9.586C40.8556 9.586 41.1356 9.532 41.3596 9.424C41.5876 9.312 41.7676 9.184 41.8996 9.04C42.0356 8.892 42.1316 8.76 42.1876 8.644L42.6136 9.064C42.4656 9.292 42.2936 9.488 42.0976 9.652C41.9056 9.812 41.6776 9.934 41.4136 10.018C41.1536 10.102 40.8436 10.144 40.4836 10.144C39.9596 10.144 39.5116 10.028 39.1396 9.796C38.7716 9.56 38.4896 9.24 38.2936 8.836C38.1016 8.432 38.0056 7.978 38.0056 7.474C38.0056 6.994 38.1016 6.562 38.2936 6.178C38.4856 5.794 38.7616 5.49 39.1216 5.266C39.4856 5.042 39.9236 4.93 40.4356 4.93C40.8996 4.93 41.3016 5.032 41.6416 5.236C41.9856 5.44 42.2516 5.724 42.4396 6.088C42.6316 6.448 42.7276 6.868 42.7276 7.348C42.7276 7.384 42.7256 7.43 42.7216 7.486C42.7216 7.542 42.7196 7.586 42.7156 7.618H38.6776ZM42.0436 7.048C42.0396 6.832 41.9856 6.604 41.8816 6.364C41.7816 6.12 41.6156 5.914 41.3836 5.746C41.1556 5.574 40.8416 5.488 40.4416 5.488C40.0256 5.488 39.6936 5.572 39.4456 5.74C39.2016 5.904 39.0236 6.106 38.9116 6.346C38.7996 6.586 38.7316 6.82 38.7076 7.048H42.0436Z" fill="#2260FF"/>
</svg>
