<?xml version="1.0" standalone="no"?>
<!DOCTYPE svg PUBLIC "-//W3C//DTD SVG 20010904//EN"
 "http://www.w3.org/TR/2001/REC-SVG-20010904/DTD/svg10.dtd">
<svg version="1.0" xmlns="http://www.w3.org/2000/svg"
 width="48.000000pt" height="50.000000pt" viewBox="0 0 48.000000 50.000000"
 preserveAspectRatio="xMidYMid meet">

<g transform="translate(0.000000,50.000000) scale(0.100000,-0.100000)"
fill="#000000" stroke="none">
<path d="M255 490 c-9 -15 3 -30 25 -30 10 0 48 -33 85 -75 62 -69 95 -91 95
-64 0 6 -28 43 -61 81 -74 83 -127 115 -144 88z"/>
<path d="M135 448 c-88 -31 -129 -96 -129 -203 0 -81 28 -156 74 -200 25 -24
30 -26 36 -12 3 10 -6 31 -24 54 -38 49 -52 92 -52 162 0 105 59 171 154 171
50 0 52 -1 121 -73 39 -41 82 -82 98 -92 31 -20 36 -55 11 -79 -19 -19 -18
-19 -53 -2 -27 14 -78 68 -114 121 -25 35 -62 49 -90 34 -31 -17 -37 -28 -37
-75 0 -44 36 -110 86 -159 34 -32 110 -69 124 -60 19 12 10 25 -27 40 -69 29
-153 130 -153 183 0 25 25 46 45 38 8 -3 28 -28 45 -55 18 -29 50 -62 79 -80
69 -44 110 -41 137 11 22 42 10 83 -32 112 -19 13 -60 51 -91 86 -78 85 -131
105 -208 78z"/>
<path d="M134 381 c-50 -30 -64 -58 -64 -126 0 -71 23 -126 74 -183 53 -59
126 -88 126 -51 0 5 -12 14 -27 20 -71 26 -143 136 -143 216 0 52 38 100 87
109 35 7 44 -1 126 -100 21 -25 52 -53 68 -62 27 -13 30 -13 36 3 4 10 1 19
-8 21 -15 5 -69 60 -130 130 -30 36 -41 42 -75 42 -21 0 -53 -9 -70 -19z"/>
<path d="M184 266 c-13 -34 73 -142 137 -174 23 -12 46 -19 51 -16 16 10 8 32
-15 38 -36 9 -101 70 -128 120 -25 48 -36 56 -45 32z"/>
</g>
</svg>
