<?xml version="1.0" standalone="no"?>
<!DOCTYPE svg PUBLIC "-//W3C//DTD SVG 20010904//EN"
 "http://www.w3.org/TR/2001/REC-SVG-20010904/DTD/svg10.dtd">
<svg version="1.0" xmlns="http://www.w3.org/2000/svg"
 width="512.000000pt" height="512.000000pt" viewBox="0 0 512.000000 512.000000"
 preserveAspectRatio="xMidYMid meet">

<g transform="translate(0.000000,512.000000) scale(0.100000,-0.100000)"
fill="#000000" stroke="none">
<path d="M362 4833 c-65 -32 -100 -101 -87 -171 6 -32 69 -99 523 -554 318
-319 513 -521 507 -527 -6 -4 -57 -49 -115 -98 -138 -118 -301 -288 -427 -445
-115 -143 -323 -451 -323 -477 0 -20 149 -250 252 -390 448 -605 1016 -988
1598 -1077 150 -23 398 -23 535 0 218 36 450 114 636 214 l88 47 538 -537
c579 -577 560 -561 643 -543 44 10 107 75 115 119 16 83 141 -47 -2168 2264
-1281 1282 -2175 2170 -2194 2178 -42 18 -80 17 -121 -3z m2521 -2826 c-9 -14
-105 -54 -171 -72 -77 -19 -231 -19 -307 0 -234 61 -411 239 -471 474 -24 97
-16 263 18 359 15 40 34 85 43 99 l17 26 439 -439 c241 -241 435 -442 432
-447z"/>
</g>
</svg>
