<?xml version="1.0" standalone="no"?>
<!DOCTYPE svg PUBLIC "-//W3C//DTD SVG 20010904//EN"
 "http://www.w3.org/TR/2001/REC-SVG-20010904/DTD/svg10.dtd">
<svg version="1.0" xmlns="http://www.w3.org/2000/svg"
 width="512.000000pt" height="512.000000pt" viewBox="0 0 512.000000 512.000000"
 preserveAspectRatio="xMidYMid meet">

<g transform="translate(0.000000,512.000000) scale(0.100000,-0.100000)"
fill="#000000" stroke="none">
<path d="M2315 4240 c-594 -55 -1261 -424 -1781 -986 -220 -238 -494 -595
-527 -686 -7 -20 192 -307 341 -492 333 -413 740 -749 1157 -956 174 -86 293
-132 460 -175 233 -62 301 -69 600 -69 241 -1 283 2 395 23 380 71 720 220
1067 469 358 256 720 633 995 1037 108 158 104 147 72 203 -106 183 -366 504
-594 733 -530 531 -1101 833 -1702 898 -107 12 -358 12 -483 1z m481 -455
c430 -82 790 -391 938 -803 96 -267 94 -585 -4 -853 -64 -175 -174 -343 -311
-473 -250 -237 -590 -363 -926 -342 -574 35 -1025 418 -1156 981 -28 123 -30
391 -4 512 78 364 285 652 600 836 136 79 308 136 470 157 96 12 293 5 393
-15z"/>
<path d="M2380 3310 c-173 -43 -317 -135 -426 -274 -185 -235 -218 -555 -84
-821 133 -266 392 -425 690 -425 240 0 459 106 605 292 105 134 154 266 162
439 16 328 -169 625 -470 752 -141 59 -328 74 -477 37z"/>
</g>
</svg>
